<svg enable-background="new 0 0 140 140" height="512" viewBox="0 0 140 140" width="512" xmlns="http://www.w3.org/2000/svg"><circle cx="70" cy="70" fill="#dc594e" r="64"/><path d="m36.1099854 106.0600586v-37.4301758c0-3.1298828 2.5300293-5.6601562 5.6500244-5.6601562h2.5899658v-12.1396485c0-14.1401367 11.5100098-25.6499023 25.6500244-25.6499023 7.6899414 0 14.5999756 3.409668 19.3000488 8.7895508l39.5599365 39.5600586c.8699951.7602539 1.6900635 1.5800781 2.4500732 2.4501953l2.1599121 2.1601562c-3.9999999 31.5-30.8798827 55.8598633-63.4699706 55.8598633-2.9799805 0-5.9099121-.2202148-8.7800293-.6098633l-22.7099609-22.7099609c-1.4499512-1.0302735-2.4000244-2.7104492-2.4000244-4.6201172z" opacity=".1"/><path d="m91.4081039 73.6465454h-42.8156013c-2.3410416 0-4.2391281-1.8973999-4.2391281-4.2391281v-18.5806808c0-14.1414642 11.5051193-25.6472721 25.6465797-25.6472721 14.1421585 0 25.6472778 11.5058079 25.6472778 25.6472721v18.5806808c.0000001 2.3417282-1.8980865 4.2391281-4.2391281 4.2391281zm-38.5764732-8.4782562h34.3373451v-14.3415527c0-9.467659-7.7020493-17.1690178-17.1690216-17.1690178s-17.1683235 7.7013588-17.1683235 17.1690178z" fill="#e6e7e8"/><path d="m98.2370911 62.9737625h-56.4741783c-3.1216469 0-5.6521721 2.5305252-5.6521721 5.6521683v37.4327774c0 3.1215591 2.5305252 5.6521683 5.6521721 5.6521683h56.4741783c3.1216431 0 5.6521683-2.5306091 5.6521683-5.6521683v-37.4327774c-.0000001-3.1216431-2.5305253-5.6521683-5.6521683-5.6521683z" fill="#feed32"/><circle cx="70" cy="87.342" fill="#ffcb08" r="13.576"/><path d="m72.0770493 87.5838776 1.0133514 6.993187h-6.1801605l1.0133133-6.993187c-1.1723938-.7069855-1.9500809-1.9854279-1.9500809-3.4465103 0-2.2269974 1.8027954-4.0297928 4.0238953-4.0297928 2.2269669 0 4.0297623 1.8027954 4.0297623 4.0297928-.0000001 1.4610824-.7776795 2.7395248-1.9500809 3.4465103z" fill="#304651"/></svg>